<svg xmlns="http://www.w3.org/2000/svg" xmlns:xlink="http://www.w3.org/1999/xlink" width="1920" zoomAndPan="magnify" viewBox="0 0 1440 809.999993" height="1080" preserveAspectRatio="xMidYMid meet" version="1.0"><defs><g/><clipPath id="5723a989fb"><path d="M 371.316406 339.222656 L 502.875 339.222656 L 502.875 470.777344 L 371.316406 470.777344 Z M 371.316406 339.222656 " clip-rule="nonzero"/></clipPath><clipPath id="462a7689bd"><path d="M 437.097656 339.222656 C 400.765625 339.222656 371.316406 368.671875 371.316406 405 C 371.316406 441.328125 400.765625 470.777344 437.097656 470.777344 C 473.425781 470.777344 502.875 441.328125 502.875 405 C 502.875 368.671875 473.425781 339.222656 437.097656 339.222656 Z M 437.097656 339.222656 " clip-rule="nonzero"/></clipPath><clipPath id="40ddb706af"><path d="M 400.234375 368.140625 L 473.957031 368.140625 L 473.957031 441.859375 L 400.234375 441.859375 Z M 400.234375 368.140625 " clip-rule="nonzero"/></clipPath><clipPath id="76b353d252"><path d="M 437.097656 368.140625 C 416.738281 368.140625 400.234375 384.640625 400.234375 405 C 400.234375 425.359375 416.738281 441.859375 437.097656 441.859375 C 457.453125 441.859375 473.957031 425.359375 473.957031 405 C 473.957031 384.640625 457.453125 368.140625 437.097656 368.140625 Z M 437.097656 368.140625 " clip-rule="nonzero"/></clipPath><clipPath id="602dd27e30"><path d="M 445.363281 326.101562 L 515.996094 326.101562 L 515.996094 396.730469 L 445.363281 396.730469 Z M 445.363281 326.101562 " clip-rule="nonzero"/></clipPath><clipPath id="68d946457c"><path d="M 480.679688 326.101562 C 461.175781 326.101562 445.363281 341.910156 445.363281 361.414062 C 445.363281 380.917969 461.175781 396.730469 480.679688 396.730469 C 500.183594 396.730469 515.996094 380.917969 515.996094 361.414062 C 515.996094 341.910156 500.183594 326.101562 480.679688 326.101562 Z M 480.679688 326.101562 " clip-rule="nonzero"/></clipPath><clipPath id="5a193d95ee"><path d="M 445.363281 413.269531 L 515.996094 413.269531 L 515.996094 483.898438 L 445.363281 483.898438 Z M 445.363281 413.269531 " clip-rule="nonzero"/></clipPath><clipPath id="c68a8252f2"><path d="M 480.679688 413.269531 C 461.175781 413.269531 445.363281 429.082031 445.363281 448.585938 C 445.363281 468.089844 461.175781 483.898438 480.679688 483.898438 C 500.183594 483.898438 515.996094 468.089844 515.996094 448.585938 C 515.996094 429.082031 500.183594 413.269531 480.679688 413.269531 Z M 480.679688 413.269531 " clip-rule="nonzero"/></clipPath><clipPath id="fb6c2f3c9a"><path d="M 358.195312 413.269531 L 428.828125 413.269531 L 428.828125 483.898438 L 358.195312 483.898438 Z M 358.195312 413.269531 " clip-rule="nonzero"/></clipPath><clipPath id="0a4dada1e5"><path d="M 393.511719 413.269531 C 374.007812 413.269531 358.195312 429.082031 358.195312 448.585938 C 358.195312 468.089844 374.007812 483.898438 393.511719 483.898438 C 413.015625 483.898438 428.828125 468.089844 428.828125 448.585938 C 428.828125 429.082031 413.015625 413.269531 393.511719 413.269531 Z M 393.511719 413.269531 " clip-rule="nonzero"/></clipPath><clipPath id="2efad550a9"><path d="M 358.195312 326.101562 L 428.828125 326.101562 L 428.828125 396.730469 L 358.195312 396.730469 Z M 358.195312 326.101562 " clip-rule="nonzero"/></clipPath><clipPath id="00667b58a5"><path d="M 393.511719 326.101562 C 374.007812 326.101562 358.195312 341.910156 358.195312 361.414062 C 358.195312 380.917969 374.007812 396.730469 393.511719 396.730469 C 413.015625 396.730469 428.828125 380.917969 428.828125 361.414062 C 428.828125 341.910156 413.015625 326.101562 393.511719 326.101562 Z M 393.511719 326.101562 " clip-rule="nonzero"/></clipPath></defs><g clip-path="url(#5723a989fb)"><g clip-path="url(#462a7689bd)"><path fill="#ff637d" d="M 371.316406 339.222656 L 502.875 339.222656 L 502.875 470.777344 L 371.316406 470.777344 Z M 371.316406 339.222656 " fill-opacity="1" fill-rule="nonzero"/></g></g><g clip-path="url(#40ddb706af)"><g clip-path="url(#76b353d252)"><path fill="#ffffff" d="M 400.234375 368.140625 L 473.957031 368.140625 L 473.957031 441.859375 L 400.234375 441.859375 Z M 400.234375 368.140625 " fill-opacity="1" fill-rule="nonzero"/></g></g><g clip-path="url(#602dd27e30)"><g clip-path="url(#68d946457c)"><path fill="#ff637d" d="M 445.363281 326.101562 L 515.996094 326.101562 L 515.996094 396.730469 L 445.363281 396.730469 Z M 445.363281 326.101562 " fill-opacity="1" fill-rule="nonzero"/></g></g><g clip-path="url(#5a193d95ee)"><g clip-path="url(#c68a8252f2)"><path fill="#ff637d" d="M 445.363281 413.269531 L 515.996094 413.269531 L 515.996094 483.898438 L 445.363281 483.898438 Z M 445.363281 413.269531 " fill-opacity="1" fill-rule="nonzero"/></g></g><g clip-path="url(#fb6c2f3c9a)"><g clip-path="url(#0a4dada1e5)"><path fill="#ff637d" d="M 358.195312 413.269531 L 428.828125 413.269531 L 428.828125 483.898438 L 358.195312 483.898438 Z M 358.195312 413.269531 " fill-opacity="1" fill-rule="nonzero"/></g></g><g clip-path="url(#2efad550a9)"><g clip-path="url(#00667b58a5)"><path fill="#ff637d" d="M 358.195312 326.101562 L 428.828125 326.101562 L 428.828125 396.730469 L 358.195312 396.730469 Z M 358.195312 326.101562 " fill-opacity="1" fill-rule="nonzero"/></g></g><g fill="#ff637d" fill-opacity="1"><g transform="translate(521.613059, 432.0141)"><g><path d="M 4.007812 -28.300781 C 4.007812 -11.785156 15.070312 0.800781 33.03125 0.800781 C 48.824219 0.800781 59.246094 -7.855469 60.929688 -21.886719 L 48.101562 -21.886719 C 46.820312 -14.429688 40.886719 -10.421875 33.191406 -10.421875 C 23.328125 -10.421875 16.835938 -16.59375 16.835938 -28.300781 C 16.835938 -39.925781 23.328125 -46.097656 33.191406 -46.097656 C 40.886719 -46.097656 46.820312 -42.167969 48.101562 -34.714844 L 60.929688 -34.714844 C 59.246094 -48.664062 48.824219 -57.320312 33.03125 -57.320312 C 15.070312 -57.320312 4.007812 -44.734375 4.007812 -28.300781 Z M 4.007812 -28.300781 "/></g></g></g><g fill="#ff637d" fill-opacity="1"><g transform="translate(586.544328, 432.0141)"><g><path d="M 3.207031 -20.28125 C 3.207031 -6.09375 13.308594 0.800781 26.054688 0.800781 C 38.722656 0.800781 48.824219 -6.09375 48.824219 -20.28125 C 48.824219 -34.390625 38.722656 -41.285156 26.054688 -41.285156 C 13.308594 -41.285156 3.207031 -34.390625 3.207031 -20.28125 Z M 16.035156 -20.28125 C 16.035156 -27.015625 19.960938 -30.0625 26.054688 -30.0625 C 32.066406 -30.0625 35.996094 -27.015625 35.996094 -20.28125 C 35.996094 -13.46875 32.066406 -10.421875 26.054688 -10.421875 C 19.960938 -10.421875 16.035156 -13.46875 16.035156 -20.28125 Z M 16.035156 -20.28125 "/></g></g></g><g fill="#ff637d" fill-opacity="1"><g transform="translate(638.569514, 432.0141)"><g><path d="M 59.003906 -41.285156 C 51.148438 -41.285156 47.539062 -36.398438 45.9375 -29.179688 L 43.613281 -29.179688 C 42.410156 -36.234375 39.203125 -41.285156 31.585938 -41.285156 C 23.730469 -41.285156 20.042969 -36.398438 18.4375 -29.179688 L 15.230469 -29.179688 L 17.636719 -36.398438 L 17.636719 -40.484375 L 4.808594 -40.484375 L 4.808594 0 L 17.636719 0 L 17.636719 -14.191406 C 17.636719 -23.96875 19.242188 -30.0625 26.214844 -30.0625 C 30.945312 -30.0625 32.226562 -27.898438 32.226562 -20.203125 L 32.226562 0 L 45.054688 0 L 45.054688 -14.191406 C 45.054688 -23.96875 46.65625 -30.0625 53.632812 -30.0625 C 58.363281 -30.0625 59.644531 -27.898438 59.644531 -20.203125 L 59.644531 0 L 72.472656 0 L 72.472656 -21.085938 C 72.472656 -31.988281 69.347656 -41.285156 59.003906 -41.285156 Z M 59.003906 -41.285156 "/></g></g></g><g fill="#ff637d" fill-opacity="1"><g transform="translate(715.044119, 432.0141)"><g><path d="M 25.171875 -10.421875 C 19 -10.421875 16.835938 -13.226562 16.835938 -20.601562 L 16.835938 -40.484375 L 4.007812 -40.484375 L 4.007812 -18.597656 C 4.007812 -6.09375 10.261719 0.800781 20.601562 0.800781 C 29.261719 0.800781 34.3125 -4.890625 35.914062 -12.105469 L 39.121094 -12.105469 L 36.71875 -4.890625 L 36.71875 0 L 49.542969 0 L 49.542969 -40.484375 L 36.71875 -40.484375 L 36.71875 -25.492188 C 36.71875 -14.109375 32.148438 -10.421875 25.171875 -10.421875 Z M 25.171875 -10.421875 "/></g></g></g><g fill="#ff637d" fill-opacity="1"><g transform="translate(768.592374, 432.0141)"><g><path d="M 29.179688 -30.0625 C 35.355469 -30.0625 37.519531 -27.257812 37.519531 -19.882812 L 37.519531 0 L 50.347656 0 L 50.347656 -21.886719 C 50.347656 -34.390625 44.09375 -41.285156 33.75 -41.285156 C 25.09375 -41.285156 20.042969 -35.59375 18.4375 -28.378906 L 15.230469 -28.378906 L 17.636719 -35.59375 L 17.636719 -40.484375 L 4.808594 -40.484375 L 4.808594 0 L 17.636719 0 L 17.636719 -14.992188 C 17.636719 -26.375 22.207031 -30.0625 29.179688 -30.0625 Z M 29.179688 -30.0625 "/></g></g></g><g fill="#ff637d" fill-opacity="1"><g transform="translate(822.942251, 432.0141)"><g><path d="M 19.800781 -44.492188 C 24.53125 -44.492188 27.496094 -46.738281 27.496094 -50.90625 C 27.496094 -54.996094 24.53125 -57.320312 19.800781 -57.320312 C 15.070312 -57.320312 12.265625 -54.996094 12.265625 -50.90625 C 12.265625 -46.738281 15.070312 -44.492188 19.800781 -44.492188 Z M 38.480469 0 L 38.480469 -11.222656 L 27.015625 -11.222656 L 27.015625 -34.550781 C 27.015625 -39.042969 24.53125 -41.527344 20.042969 -41.285156 L 4.808594 -40.484375 L 4.808594 -29.261719 L 14.671875 -29.742188 L 14.671875 -11.222656 L 3.207031 -11.222656 L 3.207031 0 Z M 38.480469 0 "/></g></g></g><g fill="#ff637d" fill-opacity="1"><g transform="translate(863.02326, 432.0141)"><g><path d="M 23.25 -29.261719 L 36.558594 -29.261719 L 36.558594 -40.484375 L 23.25 -40.484375 L 23.25 -52.109375 L 10.421875 -48.101562 L 10.421875 -40.484375 L 0.800781 -40.484375 L 0.800781 -29.261719 L 10.421875 -29.261719 L 10.421875 -6.011719 C 10.421875 -1.601562 12.828125 0.960938 17.234375 0.800781 L 38.160156 0 L 38.160156 -11.222656 L 23.25 -10.421875 Z M 23.25 -29.261719 "/></g></g></g><g fill="#ff637d" fill-opacity="1"><g transform="translate(903.585282, 432.0141)"><g><path d="M 60.6875 0 L 41.527344 -56.519531 L 20.683594 -56.519531 L 1.601562 0 L 14.589844 0 L 19.242188 -14.109375 L 43.050781 -14.109375 L 47.699219 0 Z M 29.503906 -45.296875 L 32.707031 -45.296875 L 39.28125 -25.332031 L 22.929688 -25.332031 Z M 29.503906 -45.296875 "/></g></g></g><g fill="#ff637d" fill-opacity="1"><g transform="translate(965.871211, 432.0141)"><g><path d="M 4.808594 15.230469 L 17.636719 15.230469 L 17.636719 -2.484375 L 15.230469 -9.699219 L 18.4375 -9.699219 C 20.523438 -4.328125 24.371094 0.800781 34.390625 0.800781 C 46.097656 0.800781 51.949219 -8.738281 51.949219 -20.203125 C 51.949219 -31.667969 46.097656 -41.285156 34.390625 -41.285156 C 24.371094 -41.285156 20.523438 -36.15625 18.4375 -30.785156 L 15.230469 -30.785156 L 17.636719 -38 L 17.636719 -40.484375 L 4.808594 -40.484375 Z M 17.636719 -20.203125 C 17.636719 -27.097656 21.484375 -30.0625 28.378906 -30.0625 C 35.273438 -30.0625 39.121094 -27.097656 39.121094 -20.203125 C 39.121094 -13.308594 35.273438 -10.421875 28.378906 -10.421875 C 21.484375 -10.421875 17.636719 -13.308594 17.636719 -20.203125 Z M 17.636719 -20.203125 "/></g></g></g><g fill="#ff637d" fill-opacity="1"><g transform="translate(1021.022708, 432.0141)"><g><path d="M 4.808594 15.230469 L 17.636719 15.230469 L 17.636719 -2.484375 L 15.230469 -9.699219 L 18.4375 -9.699219 C 20.523438 -4.328125 24.371094 0.800781 34.390625 0.800781 C 46.097656 0.800781 51.949219 -8.738281 51.949219 -20.203125 C 51.949219 -31.667969 46.097656 -41.285156 34.390625 -41.285156 C 24.371094 -41.285156 20.523438 -36.15625 18.4375 -30.785156 L 15.230469 -30.785156 L 17.636719 -38 L 17.636719 -40.484375 L 4.808594 -40.484375 Z M 17.636719 -20.203125 C 17.636719 -27.097656 21.484375 -30.0625 28.378906 -30.0625 C 35.273438 -30.0625 39.121094 -27.097656 39.121094 -20.203125 C 39.121094 -13.308594 35.273438 -10.421875 28.378906 -10.421875 C 21.484375 -10.421875 17.636719 -13.308594 17.636719 -20.203125 Z M 17.636719 -20.203125 "/></g></g></g></svg>