<svg xmlns="http://www.w3.org/2000/svg" xmlns:xlink="http://www.w3.org/1999/xlink" width="1920" zoomAndPan="magnify" viewBox="0 0 1440 809.999993" height="1080" preserveAspectRatio="xMidYMid meet" version="1.0"><defs><clipPath id="8d44c4414d"><path d="M 465.75 150.75 L 974.25 150.75 L 974.25 659.25 L 465.75 659.25 Z M 465.75 150.75 " clip-rule="nonzero"/></clipPath><clipPath id="b68d84f855"><path d="M 720 150.75 C 579.582031 150.75 465.75 264.582031 465.75 405 C 465.75 545.417969 579.582031 659.25 720 659.25 C 860.417969 659.25 974.25 545.417969 974.25 405 C 974.25 264.582031 860.417969 150.75 720 150.75 Z M 720 150.75 " clip-rule="nonzero"/></clipPath><clipPath id="7515114059"><path d="M 577.523438 262.523438 L 862.476562 262.523438 L 862.476562 547.476562 L 577.523438 547.476562 Z M 577.523438 262.523438 " clip-rule="nonzero"/></clipPath><clipPath id="0c40f3b037"><path d="M 720 262.523438 C 641.3125 262.523438 577.523438 326.3125 577.523438 405 C 577.523438 483.6875 641.3125 547.476562 720 547.476562 C 798.6875 547.476562 862.476562 483.6875 862.476562 405 C 862.476562 326.3125 798.6875 262.523438 720 262.523438 Z M 720 262.523438 " clip-rule="nonzero"/></clipPath><clipPath id="64415cb148"><path d="M 751.960938 100.03125 L 1024.96875 100.03125 L 1024.96875 373.039062 L 751.960938 373.039062 Z M 751.960938 100.03125 " clip-rule="nonzero"/></clipPath><clipPath id="df9d460605"><path d="M 888.464844 100.03125 C 813.074219 100.03125 751.960938 161.144531 751.960938 236.535156 C 751.960938 311.925781 813.074219 373.039062 888.464844 373.039062 C 963.855469 373.039062 1024.96875 311.925781 1024.96875 236.535156 C 1024.96875 161.144531 963.855469 100.03125 888.464844 100.03125 Z M 888.464844 100.03125 " clip-rule="nonzero"/></clipPath><clipPath id="529df34e0f"><path d="M 751.960938 436.960938 L 1024.96875 436.960938 L 1024.96875 709.96875 L 751.960938 709.96875 Z M 751.960938 436.960938 " clip-rule="nonzero"/></clipPath><clipPath id="65016930a5"><path d="M 888.464844 436.960938 C 813.074219 436.960938 751.960938 498.074219 751.960938 573.464844 C 751.960938 648.855469 813.074219 709.96875 888.464844 709.96875 C 963.855469 709.96875 1024.96875 648.855469 1024.96875 573.464844 C 1024.96875 498.074219 963.855469 436.960938 888.464844 436.960938 Z M 888.464844 436.960938 " clip-rule="nonzero"/></clipPath><clipPath id="1939ec2a22"><path d="M 415.03125 436.960938 L 688.039062 436.960938 L 688.039062 709.96875 L 415.03125 709.96875 Z M 415.03125 436.960938 " clip-rule="nonzero"/></clipPath><clipPath id="ab41adae3d"><path d="M 551.535156 436.960938 C 476.144531 436.960938 415.03125 498.074219 415.03125 573.464844 C 415.03125 648.855469 476.144531 709.96875 551.535156 709.96875 C 626.925781 709.96875 688.039062 648.855469 688.039062 573.464844 C 688.039062 498.074219 626.925781 436.960938 551.535156 436.960938 Z M 551.535156 436.960938 " clip-rule="nonzero"/></clipPath><clipPath id="4c7c6a8e44"><path d="M 415.03125 100.03125 L 688.039062 100.03125 L 688.039062 373.039062 L 415.03125 373.039062 Z M 415.03125 100.03125 " clip-rule="nonzero"/></clipPath><clipPath id="022fb8e730"><path d="M 551.535156 100.03125 C 476.144531 100.03125 415.03125 161.144531 415.03125 236.535156 C 415.03125 311.925781 476.144531 373.039062 551.535156 373.039062 C 626.925781 373.039062 688.039062 311.925781 688.039062 236.535156 C 688.039062 161.144531 626.925781 100.03125 551.535156 100.03125 Z M 551.535156 100.03125 " clip-rule="nonzero"/></clipPath></defs><g clip-path="url(#8d44c4414d)"><g clip-path="url(#b68d84f855)"><path fill="#ff637d" d="M 465.75 150.75 L 974.25 150.75 L 974.25 659.25 L 465.75 659.25 Z M 465.75 150.75 " fill-opacity="1" fill-rule="nonzero"/></g></g><g clip-path="url(#7515114059)"><g clip-path="url(#0c40f3b037)"><path fill="#ffffff" d="M 577.523438 262.523438 L 862.476562 262.523438 L 862.476562 547.476562 L 577.523438 547.476562 Z M 577.523438 262.523438 " fill-opacity="1" fill-rule="nonzero"/></g></g><g clip-path="url(#64415cb148)"><g clip-path="url(#df9d460605)"><path fill="#ff637d" d="M 751.960938 100.03125 L 1024.96875 100.03125 L 1024.96875 373.039062 L 751.960938 373.039062 Z M 751.960938 100.03125 " fill-opacity="1" fill-rule="nonzero"/></g></g><g clip-path="url(#529df34e0f)"><g clip-path="url(#65016930a5)"><path fill="#ff637d" d="M 751.960938 436.960938 L 1024.96875 436.960938 L 1024.96875 709.96875 L 751.960938 709.96875 Z M 751.960938 436.960938 " fill-opacity="1" fill-rule="nonzero"/></g></g><g clip-path="url(#1939ec2a22)"><g clip-path="url(#ab41adae3d)"><path fill="#ff637d" d="M 415.03125 436.960938 L 688.039062 436.960938 L 688.039062 709.96875 L 415.03125 709.96875 Z M 415.03125 436.960938 " fill-opacity="1" fill-rule="nonzero"/></g></g><g clip-path="url(#4c7c6a8e44)"><g clip-path="url(#022fb8e730)"><path fill="#ff637d" d="M 415.03125 100.03125 L 688.039062 100.03125 L 688.039062 373.039062 L 415.03125 373.039062 Z M 415.03125 100.03125 " fill-opacity="1" fill-rule="nonzero"/></g></g></svg>