<svg xmlns="http://www.w3.org/2000/svg" xmlns:xlink="http://www.w3.org/1999/xlink" width="1920" zoomAndPan="magnify" viewBox="0 0 1440 809.999993" height="1080" preserveAspectRatio="xMidYMid meet" version="1.0"><defs><g/><clipPath id="0381f45f2e"><path d="M 573.300781 201.585938 L 846.058594 201.585938 L 846.058594 474.34375 L 573.300781 474.34375 Z M 573.300781 201.585938 " clip-rule="nonzero"/></clipPath><clipPath id="489ad97d3f"><path d="M 709.679688 201.585938 C 634.359375 201.585938 573.300781 262.644531 573.300781 337.964844 C 573.300781 413.285156 634.359375 474.34375 709.679688 474.34375 C 785 474.34375 846.058594 413.285156 846.058594 337.964844 C 846.058594 262.644531 785 201.585938 709.679688 201.585938 Z M 709.679688 201.585938 " clip-rule="nonzero"/></clipPath><clipPath id="5d87717fec"><path d="M 633.257812 261.542969 L 786.105469 261.542969 L 786.105469 414.390625 L 633.257812 414.390625 Z M 633.257812 261.542969 " clip-rule="nonzero"/></clipPath><clipPath id="74fad3bbec"><path d="M 709.679688 261.542969 C 667.472656 261.542969 633.257812 295.757812 633.257812 337.964844 C 633.257812 380.171875 667.472656 414.390625 709.679688 414.390625 C 751.886719 414.390625 786.105469 380.171875 786.105469 337.964844 C 786.105469 295.757812 751.886719 261.542969 709.679688 261.542969 Z M 709.679688 261.542969 " clip-rule="nonzero"/></clipPath><clipPath id="f2a6a469de"><path d="M 726.824219 174.382812 L 873.265625 174.382812 L 873.265625 320.820312 L 726.824219 320.820312 Z M 726.824219 174.382812 " clip-rule="nonzero"/></clipPath><clipPath id="702ce2b8e6"><path d="M 800.042969 174.382812 C 759.605469 174.382812 726.824219 207.164062 726.824219 247.601562 C 726.824219 288.039062 759.605469 320.820312 800.042969 320.820312 C 840.484375 320.820312 873.265625 288.039062 873.265625 247.601562 C 873.265625 207.164062 840.484375 174.382812 800.042969 174.382812 Z M 800.042969 174.382812 " clip-rule="nonzero"/></clipPath><clipPath id="538e4eb0df"><path d="M 726.824219 355.109375 L 873.265625 355.109375 L 873.265625 501.550781 L 726.824219 501.550781 Z M 726.824219 355.109375 " clip-rule="nonzero"/></clipPath><clipPath id="8cdc383018"><path d="M 800.042969 355.109375 C 759.605469 355.109375 726.824219 387.890625 726.824219 428.328125 C 726.824219 468.769531 759.605469 501.550781 800.042969 501.550781 C 840.484375 501.550781 873.265625 468.769531 873.265625 428.328125 C 873.265625 387.890625 840.484375 355.109375 800.042969 355.109375 Z M 800.042969 355.109375 " clip-rule="nonzero"/></clipPath><clipPath id="81765dc25b"><path d="M 546.097656 355.109375 L 692.535156 355.109375 L 692.535156 501.550781 L 546.097656 501.550781 Z M 546.097656 355.109375 " clip-rule="nonzero"/></clipPath><clipPath id="326e67b3e0"><path d="M 619.316406 355.109375 C 578.878906 355.109375 546.097656 387.890625 546.097656 428.328125 C 546.097656 468.769531 578.878906 501.550781 619.316406 501.550781 C 659.753906 501.550781 692.535156 468.769531 692.535156 428.328125 C 692.535156 387.890625 659.753906 355.109375 619.316406 355.109375 Z M 619.316406 355.109375 " clip-rule="nonzero"/></clipPath><clipPath id="ff3da2ea1f"><path d="M 546.097656 174.382812 L 692.535156 174.382812 L 692.535156 320.820312 L 546.097656 320.820312 Z M 546.097656 174.382812 " clip-rule="nonzero"/></clipPath><clipPath id="910686074b"><path d="M 619.316406 174.382812 C 578.878906 174.382812 546.097656 207.164062 546.097656 247.601562 C 546.097656 288.039062 578.878906 320.820312 619.316406 320.820312 C 659.753906 320.820312 692.535156 288.039062 692.535156 247.601562 C 692.535156 207.164062 659.753906 174.382812 619.316406 174.382812 Z M 619.316406 174.382812 " clip-rule="nonzero"/></clipPath></defs><g clip-path="url(#0381f45f2e)"><g clip-path="url(#489ad97d3f)"><path fill="#ff637d" d="M 573.300781 201.585938 L 846.058594 201.585938 L 846.058594 474.34375 L 573.300781 474.34375 Z M 573.300781 201.585938 " fill-opacity="1" fill-rule="nonzero"/></g></g><g clip-path="url(#5d87717fec)"><g clip-path="url(#74fad3bbec)"><path fill="#ffffff" d="M 633.257812 261.542969 L 786.105469 261.542969 L 786.105469 414.390625 L 633.257812 414.390625 Z M 633.257812 261.542969 " fill-opacity="1" fill-rule="nonzero"/></g></g><g clip-path="url(#f2a6a469de)"><g clip-path="url(#702ce2b8e6)"><path fill="#ff637d" d="M 726.824219 174.382812 L 873.265625 174.382812 L 873.265625 320.820312 L 726.824219 320.820312 Z M 726.824219 174.382812 " fill-opacity="1" fill-rule="nonzero"/></g></g><g clip-path="url(#538e4eb0df)"><g clip-path="url(#8cdc383018)"><path fill="#ff637d" d="M 726.824219 355.109375 L 873.265625 355.109375 L 873.265625 501.550781 L 726.824219 501.550781 Z M 726.824219 355.109375 " fill-opacity="1" fill-rule="nonzero"/></g></g><g clip-path="url(#81765dc25b)"><g clip-path="url(#326e67b3e0)"><path fill="#ff637d" d="M 546.097656 355.109375 L 692.535156 355.109375 L 692.535156 501.550781 L 546.097656 501.550781 Z M 546.097656 355.109375 " fill-opacity="1" fill-rule="nonzero"/></g></g><g clip-path="url(#ff3da2ea1f)"><g clip-path="url(#910686074b)"><path fill="#ff637d" d="M 546.097656 174.382812 L 692.535156 174.382812 L 692.535156 320.820312 L 546.097656 320.820312 Z M 546.097656 174.382812 " fill-opacity="1" fill-rule="nonzero"/></g></g><g fill="#ff637d" fill-opacity="1"><g transform="translate(371.038354, 598.453839)"><g><path d="M 5.046875 -35.625 C 5.046875 -14.835938 18.972656 1.007812 41.578125 1.007812 C 61.457031 1.007812 74.578125 -9.890625 76.695312 -27.550781 L 60.550781 -27.550781 C 58.933594 -18.164062 51.46875 -13.117188 41.78125 -13.117188 C 29.367188 -13.117188 21.191406 -20.890625 21.191406 -35.625 C 21.191406 -50.257812 29.367188 -58.027344 41.78125 -58.027344 C 51.46875 -58.027344 58.933594 -53.082031 60.550781 -43.695312 L 76.695312 -43.695312 C 74.578125 -61.257812 61.457031 -72.15625 41.578125 -72.15625 C 18.972656 -72.15625 5.046875 -56.3125 5.046875 -35.625 Z M 5.046875 -35.625 "/></g></g></g><g fill="#ff637d" fill-opacity="1"><g transform="translate(452.748134, 598.453839)"><g><path d="M 4.035156 -25.53125 C 4.035156 -7.667969 16.753906 1.007812 32.796875 1.007812 C 48.742188 1.007812 61.457031 -7.667969 61.457031 -25.53125 C 61.457031 -43.292969 48.742188 -51.972656 32.796875 -51.972656 C 16.753906 -51.972656 4.035156 -43.292969 4.035156 -25.53125 Z M 20.183594 -25.53125 C 20.183594 -34.007812 25.128906 -37.84375 32.796875 -37.84375 C 40.367188 -37.84375 45.3125 -34.007812 45.3125 -25.53125 C 45.3125 -16.953125 40.367188 -13.117188 32.796875 -13.117188 C 25.128906 -13.117188 20.183594 -16.953125 20.183594 -25.53125 Z M 20.183594 -25.53125 "/></g></g></g><g fill="#ff637d" fill-opacity="1"><g transform="translate(518.21685, 598.453839)"><g><path d="M 74.273438 -51.972656 C 64.382812 -51.972656 59.84375 -45.816406 57.824219 -36.734375 L 54.898438 -36.734375 C 53.382812 -45.613281 49.347656 -51.972656 39.761719 -51.972656 C 29.871094 -51.972656 25.230469 -45.816406 23.210938 -36.734375 L 19.175781 -36.734375 L 22.203125 -45.816406 L 22.203125 -50.960938 L 6.054688 -50.960938 L 6.054688 0 L 22.203125 0 L 22.203125 -17.863281 C 22.203125 -30.175781 24.21875 -37.84375 33 -37.84375 C 38.953125 -37.84375 40.566406 -35.117188 40.566406 -25.429688 L 40.566406 0 L 56.714844 0 L 56.714844 -17.863281 C 56.714844 -30.175781 58.734375 -37.84375 67.511719 -37.84375 C 73.46875 -37.84375 75.082031 -35.117188 75.082031 -25.429688 L 75.082031 0 L 91.226562 0 L 91.226562 -26.539062 C 91.226562 -40.265625 87.292969 -51.972656 74.273438 -51.972656 Z M 74.273438 -51.972656 "/></g></g></g><g fill="#ff637d" fill-opacity="1"><g transform="translate(614.452814, 598.453839)"><g><path d="M 31.6875 -13.117188 C 23.917969 -13.117188 21.191406 -16.652344 21.191406 -25.933594 L 21.191406 -50.960938 L 5.046875 -50.960938 L 5.046875 -23.414062 C 5.046875 -7.667969 12.917969 1.007812 25.933594 1.007812 C 36.835938 1.007812 43.191406 -6.15625 45.210938 -15.238281 L 49.246094 -15.238281 L 46.21875 -6.15625 L 46.21875 0 L 62.367188 0 L 62.367188 -50.960938 L 46.21875 -50.960938 L 46.21875 -32.089844 C 46.21875 -17.761719 40.46875 -13.117188 31.6875 -13.117188 Z M 31.6875 -13.117188 "/></g></g></g><g fill="#ff637d" fill-opacity="1"><g transform="translate(681.838184, 598.453839)"><g><path d="M 36.734375 -37.84375 C 44.503906 -37.84375 47.230469 -34.3125 47.230469 -25.027344 L 47.230469 0 L 63.375 0 L 63.375 -27.550781 C 63.375 -43.292969 55.503906 -51.972656 42.484375 -51.972656 C 31.585938 -51.972656 25.230469 -44.808594 23.210938 -35.722656 L 19.175781 -35.722656 L 22.203125 -44.808594 L 22.203125 -50.960938 L 6.054688 -50.960938 L 6.054688 0 L 22.203125 0 L 22.203125 -18.871094 C 22.203125 -33.203125 27.953125 -37.84375 36.734375 -37.84375 Z M 36.734375 -37.84375 "/></g></g></g><g fill="#ff637d" fill-opacity="1"><g transform="translate(750.232308, 598.453839)"><g><path d="M 24.925781 -56.007812 C 30.878906 -56.007812 34.613281 -58.835938 34.613281 -64.082031 C 34.613281 -69.230469 30.878906 -72.15625 24.925781 -72.15625 C 18.972656 -72.15625 15.441406 -69.230469 15.441406 -64.082031 C 15.441406 -58.835938 18.972656 -56.007812 24.925781 -56.007812 Z M 48.441406 0 L 48.441406 -14.128906 L 34.007812 -14.128906 L 34.007812 -43.496094 C 34.007812 -49.144531 30.878906 -52.273438 25.230469 -51.972656 L 6.054688 -50.960938 L 6.054688 -36.835938 L 18.46875 -37.441406 L 18.46875 -14.128906 L 4.035156 -14.128906 L 4.035156 0 Z M 48.441406 0 "/></g></g></g><g fill="#ff637d" fill-opacity="1"><g transform="translate(800.670431, 598.453839)"><g><path d="M 29.265625 -36.835938 L 46.019531 -36.835938 L 46.019531 -50.960938 L 29.265625 -50.960938 L 29.265625 -65.59375 L 13.117188 -60.550781 L 13.117188 -50.960938 L 1.007812 -50.960938 L 1.007812 -36.835938 L 13.117188 -36.835938 L 13.117188 -7.570312 C 13.117188 -2.019531 16.148438 1.210938 21.695312 1.007812 L 48.035156 0 L 48.035156 -14.128906 L 29.265625 -13.117188 Z M 29.265625 -36.835938 "/></g></g></g><g fill="#ff637d" fill-opacity="1"><g transform="translate(851.71382, 598.453839)"><g><path d="M 76.394531 0 L 52.273438 -71.144531 L 26.035156 -71.144531 L 2.019531 0 L 18.367188 0 L 24.21875 -17.761719 L 54.191406 -17.761719 L 60.046875 0 Z M 37.136719 -57.019531 L 41.175781 -57.019531 L 49.449219 -31.890625 L 28.863281 -31.890625 Z M 37.136719 -57.019531 "/></g></g></g><g fill="#ff637d" fill-opacity="1"><g transform="translate(930.094699, 598.453839)"><g><path d="M 6.054688 19.175781 L 22.203125 19.175781 L 22.203125 -3.128906 L 19.175781 -12.210938 L 23.210938 -12.210938 C 25.835938 -5.449219 30.679688 1.007812 43.292969 1.007812 C 58.027344 1.007812 65.394531 -11 65.394531 -25.429688 C 65.394531 -39.863281 58.027344 -51.972656 43.292969 -51.972656 C 30.679688 -51.972656 25.835938 -45.511719 23.210938 -38.75 L 19.175781 -38.75 L 22.203125 -47.835938 L 22.203125 -50.960938 L 6.054688 -50.960938 Z M 22.203125 -25.429688 C 22.203125 -34.109375 27.046875 -37.84375 35.722656 -37.84375 C 44.402344 -37.84375 49.246094 -34.109375 49.246094 -25.429688 C 49.246094 -16.753906 44.402344 -13.117188 35.722656 -13.117188 C 27.046875 -13.117188 22.203125 -16.753906 22.203125 -25.429688 Z M 22.203125 -25.429688 "/></g></g></g><g fill="#ff637d" fill-opacity="1"><g transform="translate(999.497578, 598.453839)"><g><path d="M 6.054688 19.175781 L 22.203125 19.175781 L 22.203125 -3.128906 L 19.175781 -12.210938 L 23.210938 -12.210938 C 25.835938 -5.449219 30.679688 1.007812 43.292969 1.007812 C 58.027344 1.007812 65.394531 -11 65.394531 -25.429688 C 65.394531 -39.863281 58.027344 -51.972656 43.292969 -51.972656 C 30.679688 -51.972656 25.835938 -45.511719 23.210938 -38.75 L 19.175781 -38.75 L 22.203125 -47.835938 L 22.203125 -50.960938 L 6.054688 -50.960938 Z M 22.203125 -25.429688 C 22.203125 -34.109375 27.046875 -37.84375 35.722656 -37.84375 C 44.402344 -37.84375 49.246094 -34.109375 49.246094 -25.429688 C 49.246094 -16.753906 44.402344 -13.117188 35.722656 -13.117188 C 27.046875 -13.117188 22.203125 -16.753906 22.203125 -25.429688 Z M 22.203125 -25.429688 "/></g></g></g></svg>